<?xml version="1.0" encoding="utf-8"?>
<!-- Generator: Adobe Illustrator 28.1.0, SVG Export Plug-In . SVG Version: 6.00 Build 0)  -->
<svg version="1.1" id="Layer_1" xmlns="http://www.w3.org/2000/svg" xmlns:xlink="http://www.w3.org/1999/xlink" x="0px" y="0px"
	 viewBox="0 0 841.89 425.2" style="enable-background:new 0 0 841.89 425.2;" xml:space="preserve">
<style type="text/css">
	.st0{fill:#007C6A;}
	.st1{fill:#17467E;}
	.st2{fill:#223845;}
	.st3{fill:#77449A;}
	.st4{fill:#343850;}
	.st5{fill:#2A2C31;}
</style>
<g>
	<polyline class="st0" points="110.42,136.17 68.16,136.17 27.5,206.58 68.16,277 110.42,277 151.08,206.58 110.42,136.17 	"/>
	<polyline class="st1" points="232.39,65.75 151.08,65.75 110.42,136.17 149.47,136.17 190.13,206.58 232.39,206.58 273.05,136.17 
		232.39,65.75 	"/>
	<polyline class="st2" points="149.47,136.17 110.42,136.17 151.08,206.58 190.13,206.58 149.47,136.17 	"/>
	<polyline class="st3" points="232.39,206.58 232.39,206.58 190.13,206.58 149.47,277 110.42,277 151.08,347.42 232.39,347.42 
		273.05,277 232.39,206.58 	"/>
	<polyline class="st4" points="190.13,206.58 151.08,206.58 110.42,277 149.47,277 190.13,206.58 	"/>
</g>
<g>
	<path class="st5" d="M334.21,82.27c15.19,0,26.82,2.7,34.9,8.1c8.08,5.4,12.12,13.8,12.12,25.19c0,7.11-1.63,12.88-4.89,17.31
		c-3.26,4.43-7.96,7.91-14.09,10.44c2.05,2.53,4.18,5.43,6.43,8.69c2.24,3.26,4.45,6.67,6.64,10.22c2.19,3.56,4.31,7.25,6.35,11.1
		c2.04,3.85,3.94,7.62,5.69,11.32H361.9c-1.86-3.31-3.74-6.67-5.65-10.08c-1.91-3.41-3.86-6.72-5.86-9.93
		c-2-3.21-3.98-6.25-5.94-9.13c-1.96-2.87-3.91-5.48-5.86-7.81h-11.25v36.95h-22.78V84.9c4.96-0.97,10.1-1.65,15.41-2.04
		C325.28,82.47,330.02,82.27,334.21,82.27z M335.52,101.69c-1.66,0-3.14,0.05-4.45,0.15c-1.31,0.1-2.56,0.2-3.72,0.29v27.45h6.43
		c8.57,0,14.7-1.07,18.4-3.21c3.7-2.14,5.55-5.79,5.55-10.95c0-4.97-1.88-8.49-5.62-10.59
		C348.35,102.74,342.82,101.69,335.52,101.69z"/>
	<path class="st5" d="M474.39,184.64c-1.13-3.52-2.34-7.13-3.63-10.83c-1.3-3.71-2.59-7.4-3.87-11.07h-39.53
		c-1.28,3.69-2.56,7.39-3.84,11.1c-1.28,3.71-2.48,7.31-3.59,10.8h-23.66c3.81-10.9,7.42-20.98,10.84-30.23
		c3.42-9.25,6.76-17.96,10.03-26.14s6.49-15.94,9.67-23.29c3.17-7.35,6.47-14.53,9.89-21.54h21.59c3.33,7.01,6.6,14.19,9.83,21.54
		c3.23,7.35,6.48,15.11,9.76,23.29c3.28,8.18,6.63,16.89,10.05,26.14c3.42,9.25,7.04,19.33,10.86,30.23H474.39z M447.02,106.36
		c-0.51,1.47-1.25,3.47-2.23,6c-0.98,2.53-2.09,5.45-3.34,8.77c-1.25,3.32-2.65,6.97-4.19,10.95c-1.54,3.99-3.11,8.17-4.71,12.54
		h28.94c-1.55-4.39-3.05-8.58-4.5-12.58c-1.45-4-2.83-7.66-4.14-10.97c-1.31-3.32-2.45-6.24-3.44-8.76
		C448.42,109.78,447.62,107.8,447.02,106.36z"/>
	<path class="st5" d="M511.78,83.44h22.78v101.2h-22.78V83.44z"/>
	<path class="st5" d="M604.08,186.68c-16.45,0-28.99-4.58-37.6-13.73c-8.62-9.15-12.92-22.15-12.92-38.99
		c0-8.37,1.32-15.84,3.94-22.42c2.63-6.57,6.23-12.12,10.81-16.65c4.57-4.53,10.03-7.96,16.36-10.3c6.33-2.34,13.19-3.5,20.59-3.5
		c4.28,0,8.18,0.32,11.68,0.95c3.5,0.63,6.57,1.36,9.2,2.19c2.63,0.83,4.82,1.68,6.57,2.56c1.75,0.88,3.02,1.56,3.8,2.04l-6.57,18.4
		c-3.12-1.65-6.74-3.07-10.88-4.24c-4.14-1.17-8.84-1.75-14.09-1.75c-3.5,0-6.94,0.58-10.3,1.75c-3.36,1.17-6.33,3.04-8.91,5.62
		c-2.58,2.58-4.65,5.91-6.21,10c-1.56,4.09-2.34,9.05-2.34,14.9c0,4.67,0.51,9.03,1.53,13.07c1.02,4.04,2.68,7.52,4.96,10.44
		c2.29,2.92,5.28,5.23,8.98,6.94c3.7,1.7,8.18,2.56,13.43,2.56c3.31,0,6.28-0.19,8.91-0.58c2.63-0.39,4.96-0.85,7.01-1.39
		c2.04-0.53,3.84-1.14,5.4-1.83c1.56-0.68,2.97-1.31,4.23-1.9l6.28,18.25c-3.21,1.95-7.74,3.7-13.58,5.26
		C618.53,185.9,611.77,186.68,604.08,186.68z"/>
	<path class="st5" d="M713.6,135.22c0,5.56-0.81,10.65-2.42,15.26c-1.61,4.62-3.95,8.56-6.99,11.83c-3.05,3.27-6.7,5.8-10.96,7.6
		c-4.26,1.79-9.03,2.69-14.32,2.69c-5.2,0-9.93-0.9-14.19-2.69c-4.26-1.79-7.91-4.32-10.96-7.6c-3.05-3.27-5.42-7.21-7.13-11.83
		c-1.7-4.62-2.56-9.7-2.56-15.26c0-5.56,0.87-10.62,2.62-15.19c1.75-4.57,4.17-8.47,7.26-11.7c3.09-3.23,6.77-5.74,11.03-7.53
		c4.26-1.79,8.9-2.69,13.92-2.69c5.11,0,9.79,0.9,14.05,2.69c4.26,1.79,7.91,4.3,10.96,7.53c3.05,3.23,5.42,7.13,7.13,11.7
		C712.75,124.59,713.6,129.66,713.6,135.22z M693.16,135.22c0-6.18-1.23-11.05-3.7-14.59c-2.47-3.54-5.98-5.31-10.56-5.31
		c-4.57,0-8.11,1.77-10.62,5.31c-2.51,3.54-3.77,8.4-3.77,14.59c0,6.18,1.25,11.09,3.77,14.72c2.51,3.63,6.05,5.45,10.62,5.45
		c4.57,0,8.09-1.82,10.56-5.45C691.93,146.31,693.16,141.4,693.16,135.22z"/>
</g>
<g>
	<path class="st5" d="M328.05,251.9c0.58,0.73,1.33,1.69,2.22,2.88c0.9,1.19,1.82,2.51,2.77,3.95c0.95,1.45,1.89,2.96,2.83,4.53
		c0.93,1.57,1.73,3.09,2.39,4.56h-5.82c-0.73-1.39-1.53-2.8-2.39-4.23c-0.86-1.43-1.73-2.79-2.61-4.09
		c-0.88-1.3-1.75-2.52-2.61-3.65c-0.86-1.13-1.64-2.12-2.33-2.96c-0.48,0.04-0.96,0.05-1.45,0.05c-0.49,0-1,0-1.51,0h-4.78v14.88
		h-5.33v-37.5c1.5-0.37,3.17-0.61,5.02-0.74c1.85-0.13,3.54-0.19,5.08-0.19c5.34,0,9.42,1.01,12.22,3.02c2.8,2.01,4.2,5.02,4.2,9
		c0,2.53-0.67,4.69-2,6.48C332.62,249.69,330.65,251.02,328.05,251.9z M319.98,234.06c-2.27,0-4.01,0.05-5.22,0.17v14.33h3.79
		c1.83,0,3.48-0.09,4.94-0.27c1.46-0.18,2.7-0.53,3.71-1.04c1.01-0.51,1.78-1.23,2.33-2.17c0.55-0.93,0.82-2.17,0.82-3.71
		c0-1.43-0.27-2.62-0.82-3.57c-0.55-0.95-1.29-1.7-2.22-2.25c-0.93-0.55-2.03-0.93-3.29-1.15
		C322.75,234.17,321.41,234.06,319.98,234.06z"/>
	<path class="st5" d="M341.83,248.77c0-3.26,0.48-6.13,1.45-8.62c0.97-2.49,2.29-4.57,3.95-6.23c1.67-1.67,3.6-2.92,5.82-3.76
		c2.21-0.84,4.57-1.26,7.05-1.26c2.45,0,4.77,0.42,6.94,1.26c2.18,0.84,4.09,2.1,5.74,3.76c1.65,1.67,2.95,3.74,3.93,6.23
		c0.97,2.49,1.45,5.36,1.45,8.62c0,3.26-0.49,6.13-1.45,8.62c-0.97,2.49-2.28,4.57-3.93,6.23c-1.65,1.67-3.56,2.92-5.74,3.76
		c-2.18,0.84-4.49,1.26-6.94,1.26c-2.49,0-4.84-0.42-7.05-1.26c-2.22-0.84-4.15-2.09-5.82-3.76c-1.67-1.67-2.98-3.74-3.95-6.23
		C342.32,254.9,341.83,252.03,341.83,248.77z M347.43,248.77c0,2.31,0.29,4.4,0.88,6.29c0.59,1.89,1.42,3.49,2.5,4.8
		c1.08,1.32,2.4,2.33,3.95,3.05c1.56,0.71,3.3,1.07,5.24,1.07c1.94,0,3.68-0.36,5.22-1.07s2.85-1.73,3.93-3.05
		c1.08-1.32,1.91-2.92,2.5-4.8c0.59-1.89,0.88-3.98,0.88-6.29c0-2.31-0.29-4.4-0.88-6.29c-0.59-1.88-1.42-3.49-2.5-4.8
		c-1.08-1.32-2.39-2.33-3.93-3.05c-1.54-0.71-3.28-1.07-5.22-1.07c-1.94,0-3.69,0.36-5.24,1.07c-1.56,0.71-2.87,1.73-3.95,3.05
		c-1.08,1.32-1.91,2.92-2.5,4.8C347.72,244.37,347.43,246.47,347.43,248.77z"/>
	<path class="st5" d="M396.35,268.15c-0.77,0-1.6-0.02-2.5-0.05c-0.9-0.04-1.79-0.09-2.69-0.17c-0.9-0.07-1.78-0.16-2.66-0.27
		c-0.88-0.11-1.68-0.26-2.42-0.44v-36.89c0.73-0.18,1.54-0.33,2.42-0.44c0.88-0.11,1.77-0.2,2.66-0.27c0.9-0.07,1.78-0.13,2.66-0.16
		c0.88-0.04,1.7-0.05,2.47-0.05c2.2,0,4.25,0.16,6.18,0.49c1.92,0.33,3.59,0.89,5,1.67c1.41,0.79,2.52,1.82,3.32,3.1
		c0.8,1.28,1.21,2.85,1.21,4.72c0,2.09-0.49,3.8-1.48,5.13c-0.99,1.34-2.31,2.33-3.95,2.99c2.23,0.66,4.01,1.7,5.33,3.13
		c1.32,1.43,1.98,3.44,1.98,6.04c0,3.81-1.4,6.67-4.2,8.59S402.42,268.15,396.35,268.15z M391.35,245.81h5.6
		c1.32,0,2.56-0.09,3.73-0.27c1.17-0.18,2.19-0.51,3.05-0.99c0.86-0.48,1.54-1.1,2.03-1.87c0.49-0.77,0.74-1.74,0.74-2.91
		c0-1.1-0.26-2.02-0.77-2.77c-0.51-0.75-1.22-1.35-2.11-1.81c-0.9-0.46-1.95-0.8-3.16-1.02c-1.21-0.22-2.49-0.33-3.84-0.33
		c-1.35,0-2.42,0.02-3.18,0.05c-0.77,0.04-1.46,0.09-2.09,0.16V245.81z M391.35,250.09v13.4c0.4,0.04,0.88,0.07,1.43,0.11
		c0.47,0.04,1.03,0.06,1.67,0.08c0.64,0.02,1.38,0.03,2.22,0.03c1.57,0,3.06-0.1,4.47-0.3c1.41-0.2,2.64-0.56,3.71-1.07
		c1.06-0.51,1.91-1.23,2.55-2.14c0.64-0.91,0.96-2.07,0.96-3.46c0-1.24-0.24-2.3-0.71-3.16c-0.48-0.86-1.16-1.55-2.06-2.06
		c-0.9-0.51-1.97-0.88-3.21-1.1c-1.25-0.22-2.64-0.33-4.17-0.33H391.35z"/>
	<path class="st5" d="M419.85,248.77c0-3.26,0.48-6.13,1.45-8.62c0.97-2.49,2.29-4.57,3.95-6.23c1.67-1.67,3.6-2.92,5.82-3.76
		c2.21-0.84,4.57-1.26,7.05-1.26c2.45,0,4.77,0.42,6.94,1.26c2.18,0.84,4.09,2.1,5.74,3.76c1.65,1.67,2.95,3.74,3.93,6.23
		c0.97,2.49,1.45,5.36,1.45,8.62c0,3.26-0.49,6.13-1.45,8.62c-0.97,2.49-2.28,4.57-3.93,6.23c-1.65,1.67-3.56,2.92-5.74,3.76
		c-2.18,0.84-4.49,1.26-6.94,1.26c-2.49,0-4.84-0.42-7.05-1.26c-2.22-0.84-4.15-2.09-5.82-3.76c-1.67-1.67-2.98-3.74-3.95-6.23
		C420.33,254.9,419.85,252.03,419.85,248.77z M425.45,248.77c0,2.31,0.29,4.4,0.88,6.29c0.59,1.89,1.42,3.49,2.5,4.8
		c1.08,1.32,2.4,2.33,3.95,3.05c1.56,0.71,3.3,1.07,5.24,1.07c1.94,0,3.68-0.36,5.22-1.07s2.85-1.73,3.93-3.05
		c1.08-1.32,1.91-2.92,2.5-4.8c0.59-1.89,0.88-3.98,0.88-6.29c0-2.31-0.29-4.4-0.88-6.29c-0.59-1.88-1.42-3.49-2.5-4.8
		c-1.08-1.32-2.39-2.33-3.93-3.05c-1.54-0.71-3.28-1.07-5.22-1.07c-1.94,0-3.69,0.36-5.24,1.07c-1.56,0.71-2.87,1.73-3.95,3.05
		c-1.08,1.32-1.91,2.92-2.5,4.8C425.74,244.37,425.45,246.47,425.45,248.77z"/>
	<path class="st5" d="M488.03,229.78v4.61h-11.97v33.43h-5.33v-33.43h-11.97v-4.61H488.03z"/>
	<path class="st5" d="M493.63,229.78h5.33v38.05h-5.33V229.78z"/>
	<path class="st5" d="M524.76,268.65c-2.67,0-5.11-0.44-7.3-1.32c-2.2-0.88-4.08-2.16-5.66-3.84c-1.57-1.68-2.79-3.76-3.65-6.23
		c-0.86-2.47-1.29-5.3-1.29-8.48c0-3.18,0.48-6.01,1.45-8.48c0.97-2.47,2.28-4.55,3.93-6.23c1.65-1.68,3.57-2.96,5.76-3.84
		c2.2-0.88,4.54-1.32,7.03-1.32c1.57,0,2.99,0.11,4.25,0.33c1.26,0.22,2.36,0.48,3.29,0.77c0.93,0.29,1.69,0.59,2.28,0.88
		c0.59,0.29,0.99,0.51,1.21,0.66l-1.54,4.39c-0.33-0.22-0.81-0.46-1.43-0.71c-0.62-0.26-1.33-0.51-2.11-0.77
		c-0.79-0.26-1.65-0.47-2.58-0.63c-0.93-0.16-1.88-0.25-2.83-0.25c-2.01,0-3.83,0.35-5.44,1.04c-1.61,0.7-2.98,1.7-4.12,3.02
		c-1.13,1.32-2,2.92-2.61,4.8c-0.6,1.89-0.91,4-0.91,6.34c0,2.27,0.27,4.34,0.8,6.2c0.53,1.87,1.33,3.47,2.39,4.8
		c1.06,1.34,2.39,2.37,3.98,3.1c1.59,0.73,3.45,1.1,5.57,1.1c2.45,0,4.48-0.26,6.09-0.77c1.61-0.51,2.82-0.97,3.62-1.37l1.37,4.39
		c-0.26,0.18-0.71,0.41-1.37,0.69c-0.66,0.27-1.48,0.54-2.47,0.8c-0.99,0.26-2.14,0.47-3.46,0.66
		C527.72,268.55,526.3,268.65,524.76,268.65z"/>
	<path class="st5" d="M551.82,264.03c5.56,0,8.34-1.9,8.34-5.71c0-1.17-0.25-2.17-0.74-2.99c-0.49-0.82-1.16-1.54-2-2.14
		c-0.84-0.6-1.8-1.13-2.88-1.56c-1.08-0.44-2.22-0.88-3.43-1.32c-1.39-0.47-2.71-1.02-3.95-1.62c-1.24-0.6-2.32-1.32-3.24-2.14
		s-1.64-1.8-2.17-2.94c-0.53-1.13-0.8-2.51-0.8-4.12c0-3.33,1.13-5.93,3.4-7.8c2.27-1.87,5.4-2.8,9.39-2.8
		c2.31,0,4.4,0.25,6.29,0.74c1.89,0.49,3.27,1.03,4.15,1.62l-1.7,4.34c-0.77-0.47-1.91-0.94-3.43-1.4c-1.52-0.46-3.29-0.69-5.3-0.69
		c-1.03,0-1.98,0.11-2.85,0.33c-0.88,0.22-1.65,0.55-2.31,0.99c-0.66,0.44-1.18,1-1.56,1.67c-0.38,0.68-0.58,1.47-0.58,2.39
		c0,1.02,0.2,1.89,0.6,2.58c0.4,0.7,0.97,1.31,1.7,1.84c0.73,0.53,1.58,1.02,2.55,1.45c0.97,0.44,2.04,0.88,3.21,1.32
		c1.65,0.66,3.16,1.32,4.53,1.98c1.37,0.66,2.56,1.45,3.57,2.36c1.01,0.92,1.78,2,2.33,3.27c0.55,1.26,0.82,2.79,0.82,4.58
		c0,3.33-1.22,5.89-3.65,7.69c-2.43,1.79-5.87,2.69-10.29,2.69c-1.5,0-2.88-0.1-4.15-0.3c-1.26-0.2-2.39-0.44-3.38-0.71
		c-0.99-0.27-1.84-0.57-2.55-0.88c-0.71-0.31-1.27-0.58-1.67-0.8l1.59-4.39c0.84,0.48,2.12,1.01,3.84,1.59
		C547.23,263.74,549.34,264.03,551.82,264.03z"/>
	<path class="st5" d="M610.29,267.82c-0.62-1.65-1.21-3.27-1.76-4.86c-0.55-1.59-1.12-3.21-1.7-4.86H589.6l-3.46,9.72h-5.54
		c1.46-4.03,2.84-7.75,4.12-11.17c1.28-3.42,2.53-6.67,3.76-9.74c1.23-3.07,2.44-6.01,3.65-8.81s2.47-5.57,3.79-8.32h4.89
		c1.32,2.74,2.58,5.52,3.79,8.32s2.42,5.74,3.65,8.81c1.23,3.07,2.48,6.32,3.76,9.74c1.28,3.42,2.65,7.15,4.12,11.17H610.29z
		 M605.3,253.71c-1.17-3.18-2.33-6.27-3.49-9.25c-1.15-2.98-2.35-5.85-3.6-8.59c-1.28,2.75-2.5,5.61-3.65,8.59
		c-1.15,2.98-2.3,6.07-3.43,9.25H605.3z"/>
	<path class="st5" d="M647.35,267.82c-0.81-1.35-1.73-2.87-2.77-4.56c-1.04-1.68-2.17-3.43-3.38-5.24
		c-1.21-1.81-2.46-3.65-3.76-5.52c-1.3-1.87-2.59-3.67-3.87-5.41c-1.28-1.74-2.53-3.38-3.73-4.91c-1.21-1.54-2.32-2.89-3.35-4.06
		v29.7h-5.22v-38.05h4.23c1.72,1.83,3.56,3.96,5.52,6.4c1.96,2.43,3.9,4.94,5.82,7.52c1.92,2.58,3.73,5.12,5.43,7.6
		c1.7,2.49,3.14,4.7,4.31,6.64v-28.16h5.22v38.05H647.35z"/>
	<path class="st5" d="M692.48,248.77c0,3.29-0.51,6.16-1.54,8.59c-1.03,2.43-2.47,4.45-4.34,6.04c-1.87,1.59-4.1,2.78-6.7,3.57
		c-2.6,0.79-5.45,1.18-8.56,1.18c-1.54,0-3.23-0.06-5.08-0.19c-1.85-0.13-3.52-0.37-5.02-0.74v-36.89c1.5-0.37,3.17-0.61,5.02-0.74
		c1.85-0.13,3.54-0.19,5.08-0.19c3.11,0,5.97,0.39,8.56,1.18c2.6,0.79,4.83,1.98,6.7,3.57c1.87,1.59,3.31,3.61,4.34,6.04
		C691.97,242.62,692.48,245.48,692.48,248.77z M671.78,263.49c5.05,0,8.82-1.29,11.31-3.87c2.49-2.58,3.73-6.19,3.73-10.84
		c0-4.65-1.24-8.26-3.73-10.84c-2.49-2.58-6.26-3.87-11.31-3.87c-1.5,0-2.66,0.02-3.49,0.05c-0.82,0.04-1.4,0.07-1.73,0.11v29.1
		c0.33,0.04,0.91,0.07,1.73,0.11C669.12,263.47,670.28,263.49,671.78,263.49z"/>
	<path class="st5" d="M334.86,333.7c-0.62-1.65-1.21-3.27-1.76-4.86c-0.55-1.59-1.12-3.21-1.7-4.86h-17.24l-3.46,9.72h-5.54
		c1.46-4.03,2.84-7.75,4.12-11.17c1.28-3.42,2.53-6.67,3.76-9.74c1.23-3.07,2.44-6.01,3.65-8.81c1.21-2.8,2.47-5.57,3.79-8.32h4.89
		c1.32,2.75,2.58,5.52,3.79,8.32c1.21,2.8,2.42,5.74,3.65,8.81c1.23,3.07,2.48,6.32,3.76,9.74c1.28,3.42,2.65,7.15,4.12,11.17
		H334.86z M329.86,319.6c-1.17-3.18-2.33-6.27-3.49-9.25c-1.15-2.98-2.35-5.85-3.6-8.59c-1.28,2.75-2.5,5.61-3.65,8.59
		c-1.15,2.98-2.3,6.07-3.43,9.25H329.86z"/>
	<path class="st5" d="M345.84,295.66h5.33v38.05h-5.33V295.66z"/>
	<path class="st5" d="M389.65,334.53c-2.67,0-5.11-0.44-7.3-1.32c-2.2-0.88-4.08-2.16-5.66-3.84c-1.57-1.68-2.79-3.76-3.65-6.23
		c-0.86-2.47-1.29-5.3-1.29-8.48s0.48-6.01,1.45-8.48c0.97-2.47,2.28-4.55,3.93-6.23c1.65-1.68,3.57-2.96,5.76-3.84
		c2.2-0.88,4.54-1.32,7.03-1.32c1.57,0,2.99,0.11,4.25,0.33c1.26,0.22,2.36,0.48,3.29,0.77c0.93,0.29,1.69,0.59,2.28,0.88
		c0.59,0.29,0.99,0.51,1.21,0.66l-1.54,4.39c-0.33-0.22-0.81-0.46-1.43-0.71c-0.62-0.26-1.33-0.51-2.11-0.77
		c-0.79-0.26-1.65-0.47-2.58-0.63c-0.93-0.16-1.88-0.25-2.83-0.25c-2.01,0-3.83,0.35-5.44,1.04c-1.61,0.7-2.98,1.7-4.12,3.02
		c-1.13,1.32-2,2.92-2.61,4.8c-0.6,1.89-0.91,4-0.91,6.34c0,2.27,0.27,4.34,0.8,6.2c0.53,1.87,1.33,3.47,2.39,4.8
		c1.06,1.34,2.39,2.37,3.98,3.1c1.59,0.73,3.45,1.1,5.57,1.1c2.45,0,4.48-0.26,6.09-0.77c1.61-0.51,2.82-0.97,3.62-1.37l1.37,4.39
		c-0.26,0.18-0.71,0.41-1.37,0.69c-0.66,0.27-1.48,0.54-2.47,0.8c-0.99,0.26-2.14,0.47-3.46,0.66
		C392.61,334.44,391.19,334.53,389.65,334.53z"/>
	<path class="st5" d="M404.69,314.65c0-3.26,0.48-6.13,1.45-8.62c0.97-2.49,2.29-4.57,3.95-6.23c1.67-1.67,3.6-2.92,5.82-3.76
		c2.21-0.84,4.57-1.26,7.05-1.26c2.45,0,4.77,0.42,6.94,1.26c2.18,0.84,4.09,2.1,5.74,3.76c1.65,1.67,2.95,3.74,3.93,6.23
		c0.97,2.49,1.45,5.36,1.45,8.62c0,3.26-0.49,6.13-1.45,8.62c-0.97,2.49-2.28,4.57-3.93,6.23c-1.65,1.67-3.56,2.92-5.74,3.76
		c-2.18,0.84-4.49,1.26-6.94,1.26c-2.49,0-4.84-0.42-7.05-1.26c-2.22-0.84-4.15-2.09-5.82-3.76c-1.67-1.67-2.98-3.74-3.95-6.23
		C405.18,320.78,404.69,317.91,404.69,314.65z M410.29,314.65c0,2.31,0.29,4.4,0.88,6.29c0.59,1.89,1.42,3.49,2.5,4.8
		c1.08,1.32,2.4,2.33,3.95,3.05c1.56,0.71,3.3,1.07,5.24,1.07c1.94,0,3.68-0.36,5.22-1.07c1.54-0.71,2.85-1.73,3.93-3.05
		c1.08-1.32,1.91-2.92,2.5-4.8c0.59-1.88,0.88-3.98,0.88-6.29c0-2.31-0.29-4.4-0.88-6.29c-0.59-1.89-1.42-3.49-2.5-4.8
		c-1.08-1.32-2.39-2.33-3.93-3.05s-3.28-1.07-5.22-1.07c-1.94,0-3.69,0.36-5.24,1.07c-1.56,0.71-2.87,1.73-3.95,3.05
		c-1.08,1.32-1.91,2.92-2.5,4.8C410.58,310.25,410.29,312.35,410.29,314.65z"/>
	<path class="st5" d="M471.83,329.09v4.61h-22.89v-38.05h5.33v33.43H471.83z"/>
	<path class="st5" d="M500.33,329.09v4.61h-22.89v-38.05h5.33v33.43H500.33z"/>
	<path class="st5" d="M532.88,333.7c-0.62-1.65-1.21-3.27-1.76-4.86c-0.55-1.59-1.12-3.21-1.7-4.86h-17.24l-3.46,9.72h-5.55
		c1.46-4.03,2.84-7.75,4.12-11.17c1.28-3.42,2.53-6.67,3.76-9.74c1.23-3.07,2.44-6.01,3.65-8.81c1.21-2.8,2.47-5.57,3.79-8.32h4.89
		c1.32,2.75,2.58,5.52,3.79,8.32c1.21,2.8,2.42,5.74,3.65,8.81c1.23,3.07,2.48,6.32,3.76,9.74c1.28,3.42,2.65,7.15,4.12,11.17
		H532.88z M527.89,319.6c-1.17-3.18-2.33-6.27-3.49-9.25c-1.15-2.98-2.35-5.85-3.6-8.59c-1.28,2.75-2.5,5.61-3.65,8.59
		c-1.15,2.98-2.3,6.07-3.43,9.25H527.89z"/>
	<path class="st5" d="M554.13,334.03c-0.77,0-1.6-0.02-2.5-0.05c-0.9-0.04-1.79-0.09-2.69-0.17c-0.9-0.07-1.78-0.16-2.66-0.27
		c-0.88-0.11-1.68-0.26-2.42-0.44v-36.89c0.73-0.18,1.54-0.33,2.42-0.44c0.88-0.11,1.77-0.2,2.66-0.27c0.9-0.07,1.78-0.13,2.66-0.16
		c0.88-0.04,1.7-0.06,2.47-0.06c2.2,0,4.25,0.17,6.18,0.49c1.92,0.33,3.59,0.89,5,1.67c1.41,0.79,2.52,1.82,3.32,3.1
		c0.8,1.28,1.21,2.85,1.21,4.72c0,2.09-0.49,3.8-1.48,5.13c-0.99,1.34-2.31,2.33-3.95,2.99c2.23,0.66,4.01,1.7,5.33,3.13
		c1.32,1.43,1.98,3.44,1.98,6.04c0,3.81-1.4,6.67-4.2,8.59C564.64,333.07,560.2,334.03,554.13,334.03z M549.13,311.69h5.6
		c1.32,0,2.56-0.09,3.73-0.27c1.17-0.18,2.19-0.51,3.05-0.99c0.86-0.47,1.54-1.1,2.03-1.87c0.49-0.77,0.74-1.74,0.74-2.91
		c0-1.1-0.26-2.02-0.77-2.77c-0.51-0.75-1.22-1.35-2.11-1.81c-0.9-0.46-1.95-0.8-3.16-1.02c-1.21-0.22-2.49-0.33-3.84-0.33
		s-2.42,0.02-3.18,0.05c-0.77,0.04-1.46,0.09-2.09,0.16V311.69z M549.13,315.97v13.4c0.4,0.04,0.88,0.07,1.43,0.11
		c0.47,0.04,1.03,0.06,1.67,0.08c0.64,0.02,1.38,0.03,2.22,0.03c1.57,0,3.06-0.1,4.47-0.3c1.41-0.2,2.64-0.56,3.71-1.07
		c1.06-0.51,1.91-1.23,2.55-2.14c0.64-0.91,0.96-2.07,0.96-3.46c0-1.24-0.24-2.3-0.71-3.16s-1.16-1.55-2.06-2.06
		c-0.9-0.51-1.97-0.88-3.21-1.1c-1.25-0.22-2.64-0.33-4.17-0.33H549.13z"/>
	<path class="st5" d="M577.63,314.65c0-3.26,0.48-6.13,1.45-8.62c0.97-2.49,2.29-4.57,3.95-6.23c1.67-1.67,3.6-2.92,5.82-3.76
		c2.21-0.84,4.57-1.26,7.05-1.26c2.45,0,4.77,0.42,6.94,1.26c2.18,0.84,4.09,2.1,5.74,3.76c1.65,1.67,2.95,3.74,3.93,6.23
		c0.97,2.49,1.45,5.36,1.45,8.62c0,3.26-0.49,6.13-1.45,8.62c-0.97,2.49-2.28,4.57-3.93,6.23c-1.65,1.67-3.56,2.92-5.74,3.76
		c-2.18,0.84-4.49,1.26-6.94,1.26c-2.49,0-4.84-0.42-7.05-1.26c-2.22-0.84-4.15-2.09-5.82-3.76c-1.67-1.67-2.98-3.74-3.95-6.23
		C578.11,320.78,577.63,317.91,577.63,314.65z M583.23,314.65c0,2.31,0.29,4.4,0.88,6.29c0.59,1.89,1.42,3.49,2.5,4.8
		c1.08,1.32,2.4,2.33,3.95,3.05c1.56,0.71,3.3,1.07,5.24,1.07c1.94,0,3.68-0.36,5.22-1.07c1.54-0.71,2.85-1.73,3.93-3.05
		c1.08-1.32,1.91-2.92,2.5-4.8c0.59-1.88,0.88-3.98,0.88-6.29c0-2.31-0.29-4.4-0.88-6.29c-0.59-1.89-1.42-3.49-2.5-4.8
		c-1.08-1.32-2.39-2.33-3.93-3.05c-1.54-0.71-3.28-1.07-5.22-1.07c-1.94,0-3.69,0.36-5.24,1.07c-1.56,0.71-2.87,1.73-3.95,3.05
		c-1.08,1.32-1.91,2.92-2.5,4.8C583.52,310.25,583.23,312.35,583.23,314.65z"/>
	<path class="st5" d="M640.49,317.78c0.58,0.73,1.33,1.69,2.22,2.88c0.9,1.19,1.82,2.51,2.77,3.95c0.95,1.45,1.89,2.96,2.83,4.53
		c0.93,1.57,1.73,3.09,2.39,4.56h-5.82c-0.73-1.39-1.53-2.8-2.39-4.23c-0.86-1.43-1.73-2.79-2.61-4.09
		c-0.88-1.3-1.75-2.52-2.61-3.65c-0.86-1.13-1.64-2.12-2.33-2.97c-0.48,0.04-0.96,0.06-1.45,0.06c-0.49,0-1,0-1.51,0h-4.78v14.88
		h-5.33v-37.5c1.5-0.37,3.17-0.61,5.02-0.74c1.85-0.13,3.54-0.19,5.08-0.19c5.34,0,9.42,1.01,12.22,3.02c2.8,2.01,4.2,5.01,4.2,9
		c0,2.53-0.67,4.68-2,6.48C645.05,315.57,643.09,316.9,640.49,317.78z M632.42,299.94c-2.27,0-4.01,0.05-5.22,0.17v14.33h3.79
		c1.83,0,3.48-0.09,4.94-0.27c1.46-0.18,2.7-0.53,3.71-1.04c1.01-0.51,1.78-1.23,2.33-2.17c0.55-0.93,0.82-2.17,0.82-3.71
		c0-1.43-0.27-2.62-0.82-3.57c-0.55-0.95-1.29-1.7-2.22-2.25c-0.93-0.55-2.03-0.93-3.29-1.15
		C635.19,300.05,633.85,299.94,632.42,299.94z"/>
	<path class="st5" d="M683.37,333.7c-0.62-1.65-1.21-3.27-1.76-4.86c-0.55-1.59-1.12-3.21-1.7-4.86h-17.24l-3.46,9.72h-5.54
		c1.46-4.03,2.84-7.75,4.12-11.17c1.28-3.42,2.53-6.67,3.76-9.74c1.23-3.07,2.44-6.01,3.65-8.81c1.21-2.8,2.47-5.57,3.79-8.32h4.89
		c1.32,2.75,2.58,5.52,3.79,8.32c1.21,2.8,2.42,5.74,3.65,8.81c1.23,3.07,2.48,6.32,3.76,9.74c1.28,3.42,2.65,7.15,4.12,11.17
		H683.37z M678.37,319.6c-1.17-3.18-2.33-6.27-3.49-9.25c-1.15-2.98-2.35-5.85-3.6-8.59c-1.28,2.75-2.5,5.61-3.65,8.59
		c-1.15,2.98-2.3,6.07-3.43,9.25H678.37z"/>
	<path class="st5" d="M716.25,295.66v4.61h-11.97v33.43h-5.33v-33.43h-11.97v-4.61H716.25z"/>
	<path class="st5" d="M721.85,295.66h5.33v38.05h-5.33V295.66z"/>
	<path class="st5" d="M735.08,314.65c0-3.26,0.48-6.13,1.45-8.62c0.97-2.49,2.29-4.57,3.95-6.23c1.67-1.67,3.6-2.92,5.82-3.76
		c2.21-0.84,4.57-1.26,7.05-1.26c2.45,0,4.77,0.42,6.94,1.26c2.18,0.84,4.09,2.1,5.74,3.76c1.65,1.67,2.95,3.74,3.93,6.23
		c0.97,2.49,1.45,5.36,1.45,8.62c0,3.26-0.49,6.13-1.45,8.62c-0.97,2.49-2.28,4.57-3.93,6.23c-1.65,1.67-3.56,2.92-5.74,3.76
		c-2.18,0.84-4.49,1.26-6.94,1.26c-2.49,0-4.84-0.42-7.05-1.26c-2.22-0.84-4.15-2.09-5.82-3.76c-1.67-1.67-2.98-3.74-3.95-6.23
		C735.57,320.78,735.08,317.91,735.08,314.65z M740.68,314.65c0,2.31,0.29,4.4,0.88,6.29c0.59,1.89,1.42,3.49,2.5,4.8
		c1.08,1.32,2.4,2.33,3.95,3.05c1.56,0.71,3.3,1.07,5.24,1.07c1.94,0,3.68-0.36,5.22-1.07c1.54-0.71,2.85-1.73,3.93-3.05
		c1.08-1.32,1.91-2.92,2.5-4.8c0.59-1.88,0.88-3.98,0.88-6.29c0-2.31-0.29-4.4-0.88-6.29c-0.59-1.89-1.42-3.49-2.5-4.8
		c-1.08-1.32-2.39-2.33-3.93-3.05c-1.54-0.71-3.28-1.07-5.22-1.07c-1.94,0-3.69,0.36-5.24,1.07c-1.56,0.71-2.87,1.73-3.95,3.05
		c-1.08,1.32-1.91,2.92-2.5,4.8C740.97,310.25,740.68,312.35,740.68,314.65z"/>
	<path class="st5" d="M805.41,333.7c-0.81-1.35-1.73-2.87-2.77-4.56c-1.04-1.68-2.17-3.43-3.38-5.24c-1.21-1.81-2.46-3.65-3.76-5.52
		c-1.3-1.87-2.59-3.67-3.87-5.41c-1.28-1.74-2.53-3.38-3.73-4.91c-1.21-1.54-2.32-2.89-3.35-4.06v29.7h-5.22v-38.05h4.23
		c1.72,1.83,3.56,3.96,5.52,6.4c1.96,2.43,3.9,4.94,5.82,7.52c1.92,2.58,3.73,5.12,5.43,7.6c1.7,2.49,3.14,4.7,4.31,6.64v-28.16
		h5.22v38.05H805.41z"/>
</g>
</svg>
